<?xml version="1.0" encoding="utf-8"?>
<svg id="master-artboard" viewBox="0 0 1224.409423828125 770.8661499023438" xmlns="http://www.w3.org/2000/svg" width="1224.409423828125px" height="770.8661499023438px" version="1.1" style="shape-rendering:geometricPrecision; text-rendering:geometricPrecision; image-rendering:optimizeQuality; fill-rule:evenodd; clip-rule:evenodd"><defs><style id="ee-google-fonts">@import url(https://fonts.googleapis.com/css?family=Acme:400);</style><linearGradient id="gradient-0" gradientUnits="userSpaceOnUse" x1="346.5643310546875" y1="23.800003051757812" x2="346.5643310546875" y2="220.60000610351562" gradientTransform="matrix(0.845239715372775, -0.5343866969582791, 0.3125639461796448, 0.49438231239962666, 10.011497807232267, 246.08126930464084)">
                <stop offset="0" style="stop-color: #0c1f06"/>
                <stop offset="1" style="stop-color: #000000"/>
              </linearGradient></defs><rect id="ee-background" x="0" y="0" width="1224.409423828125" height="770.8661499023438" style="fill: rgb(255, 255, 255); fill-opacity: 1; pointer-events: none;"/><g transform="matrix(3.6258974075317383, 0, 0, 3.6258974075317383, -1755.5389404296875, -3654.048141479492)"><g id="g-1" transform="matrix(1, 0, 0, 1, 0, 0)">
	<g id="g-2">
		<g>
			<path class="st0" d="M649,1172.1l-0.8-0.2c-19.5-5.3-34.6-19.3-43.6-40.7c-6.8-16.1-8.6-32.9-8.6-40.3c0-2.6,0.2-5.2,0.6-7.8&#10;&#9;&#9;&#9;&#9;l0.3-1.9l52.2-15.4l52.2,15.4l0.3,1.9c0.4,2.6,0.5,5.2,0.6,7.7c0,7.4-1.8,24.2-8.6,40.3c-9,21.3-24.1,35.4-43.6,40.7L649,1172.1z&#10;&#9;&#9;&#9;&#9; M602.3,1085.9c-0.2,1.7-0.3,3.4-0.3,5c0,6.9,1.7,22.7,8.1,37.9c8.2,19.5,21.3,32,38.9,37c17.5-5,30.6-17.4,38.9-37&#10;&#9;&#9;&#9;&#9;c6.4-15.2,8.1-31,8.1-38c0-1.7-0.1-3.3-0.3-5l-46.7-13.8L602.3,1085.9z" style="fill: rgb(13, 217, 33);"/>
		</g>
	</g>
</g></g><g transform="matrix(1.7471919059753418, 0, 0, 1.7471919059753418, 412.4482116699219, -46.45756530761719)"><g transform="matrix(0.4833393394947052, 0, 0, 0.4833393394947052, -208.67945861816412, -93.58287048339844)"><g transform="matrix(1, 0, 0, 1, 0, 0)">
	<g>
		<path fill="#0A0A0C" d="M773,649.11c0-19.108-13.398-35.11-32.504-35.11H567.508C548.4,614,531,630.002,531,649.11V760h2.125&#10;&#9;&#9;&#9;c-0.132,0-0.215,1.248-0.215,2.217c0,27.602,54.214,49.644,121.091,49.644c66.876,0,119.774-22.159,119.774-49.759&#10;&#9;&#9;&#9;c0-0.97,0.224-2.478-0.776-3.433l0,0V649.11z" style="fill: rgb(27, 29, 26);"/>
		<g>
			<path fill="#3B3D44" d="M778.047,649.11c-0.414-15.994-8.286-32.329-23.92-38.43c-6.388-2.493-12.745-2.681-19.426-2.681&#10;&#9;&#9;&#9;&#9;c-19.587,0-39.175,0-58.764,0c-25.078,0-50.157,0-75.235,0c-13.491,0-28.452-1.299-41.838,0.865&#10;&#9;&#9;&#9;&#9;C539.62,611.979,524,630.714,524,649.84c0,10.747,0,21.493,0,32.24c0,25.874,0,51.748,0,77.621c0,3.038,3.806,5.299,6.843,5.299&#10;&#9;&#9;&#9;&#9;c0.761,0,1.521,0,2.283,0c-1.792-2-3.582-4.564-5.373-6.916c-3.871,20.236,17.652,34.656,33.183,41.932&#10;&#9;&#9;&#9;&#9;c29.476,13.805,63.793,17.449,95.965,17.295c31.343-0.151,64.435-4.786,92.731-18.927c9.385-4.69,18.011-11.103,24.118-19.701&#10;&#9;&#9;&#9;&#9;c4.271-6.01,8.539-17.959,2.641-23.956c0.545,1.313,1.609,2.63,1.609,3.942C778,722.15,778,685,778,648c0-6-11-6-11,0&#10;&#9;&#9;&#9;&#9;c0,21,0,39.736,0,59.05c0,12.639,0,25.276,0,37.914c0,5.827-1.772,14.232,2.654,18.734c-0.544-1.313-1.112-2.628-1.655-3.94&#10;&#9;&#9;&#9;&#9;c1.386,16.845-18.626,27.131-31.573,32.534c-24.912,10.397-52.756,13.524-79.52,13.91c-27.714,0.399-55.977-3.014-82.152-12.399&#10;&#9;&#9;&#9;&#9;c-11.29-4.047-39.422-16.633-36.255-33.184c0.672-3.516-1.534-7.619-5.374-7.619c-0.761,0-1.521,0-2.283,0&#10;&#9;&#9;&#9;&#9;c1.857,3,3.157,4.844,5.157,6.701c0-36.621,0-73.241,0-109.861c0-16.909,14.848-29.696,31.301-30.233&#10;&#9;&#9;&#9;&#9;c3.604-0.118,7.438,0.394,11.041,0.394c21.538,0,43.075,0,64.611,0c25.756,0,51.514,0,77.27,0c6.359,0,12.719,0,19.079,0&#10;&#9;&#9;&#9;&#9;c16.99,0,27.185,13.37,27.603,29.506C767.091,656.676,778.234,656.3,778.047,649.11z" style="fill: rgb(27, 29, 26);"/>
		</g>
	</g>
	<g>
		<path fill="#0A0A0C" d="M664.753,560.828c-6.038-1.943-15.914-1.943-21.952,0l-180.126,58.055c-6.037,1.946-6.037,5.131,0,7.076&#10;&#9;&#9;&#9;l180.126,58.054c6.038,1.945,15.915,1.945,21.952,0l180.126-58.054c6.034-1.945,6.034-5.13,0-7.076L664.753,560.828z" style="fill: rgb(27, 29, 26);"/>
		<g>
			<path fill="#3B3D44" d="M666.235,555.456c-16.241-4.442-30.692,1.862-45.821,6.738c-22.298,7.187-44.595,14.373-66.892,21.56&#10;&#9;&#9;&#9;&#9;c-22.77,7.337-45.537,14.677-68.306,22.016c-7.617,2.454-32.547,6.51-32.547,17.2c0,9.478,27.325,14.421,33.622,16.45&#10;&#9;&#9;&#9;&#9;c22.913,7.386,45.826,14.77,68.739,22.155c22.129,7.131,44.256,14.263,66.384,21.396c14.389,4.637,29.504,11.35,44.837,6.41&#10;&#9;&#9;&#9;&#9;c35.77-11.529,71.54-23.059,107.31-34.587c20.318-6.548,40.638-13.097,60.957-19.646c3.897-1.256,7.796-2.513,11.693-3.769&#10;&#9;&#9;&#9;&#9;c11.275-3.635,10.672-14.478-0.264-18.003C786.042,594.069,726.139,574.763,666.235,555.456&#10;&#9;&#9;&#9;&#9;c-6.859-2.211-9.773,8.55-2.962,10.745c35.28,11.371,70.559,22.742,105.839,34.111c20.545,6.622,41.09,13.243,61.637,19.865&#10;&#9;&#9;&#9;&#9;c4.127,1.331,8.255,2.662,12.385,3.992c0.995,0.321,1.522-3.988-0.539-3.323c-1.814,0.584-3.626,1.168-5.439,1.752&#10;&#9;&#9;&#9;&#9;c-42.691,13.76-85.384,27.52-128.074,41.278c-14.83,4.779-29.659,9.56-44.488,14.338c-12.872,4.149-24.369-0.884-36.418-4.767&#10;&#9;&#9;&#9;&#9;c-44.815-14.443-89.629-28.886-134.445-43.33c-7.572-2.441-15.145-4.882-22.717-7.322c-1.845-0.594-3.69-1.189-5.536-1.783&#10;&#9;&#9;&#9;&#9;c-3.425-1.104,1.873,2.214-1.17,3.195c12.625-4.07,25.249-8.139,37.873-12.206c32.099-10.347,64.198-20.691,96.297-31.037&#10;&#9;&#9;&#9;&#9;c11.837-3.815,23.674-7.631,35.511-11.444c9.818-3.166,18.645-6.23,29.286-3.319C670.215,568.1,673.157,557.35,666.235,555.456z" style="fill: rgb(27, 29, 26);"/>
		</g>
	</g>
	<g>
		<path fill="#DD2F2A" d="M650.49,628.096c30.551,12.671,61.076,25.34,91.625,38.011c-1.363-1.791-3.115-3.581-4.115-5.372&#10;&#9;&#9;&#9;c0,33.29,0,67.266,0,101.266c0,6,11,6,11,0c0-34,0-67.976,0-101.266c0-2.715-1.66-4.406-3.992-5.373&#10;&#9;&#9;&#9;c-30.553-12.671-61.053-25.34-91.604-38.011C646.767,614.598,643.952,625.385,650.49,628.096L650.49,628.096z" style="fill: rgb(27, 29, 26);"/>
	</g>
	<path d="M 756.245999 762.630005 A 12.397 12.397 0 0 1 743.848999 775.027005 A 12.397 12.397 0 0 1 731.451999 762.630005 A 12.397 12.397 0 0 1 743.848999 750.233005 A 12.397 12.397 0 0 1 756.245999 762.630005 Z" fill="#DD2F2A" style="fill: rgb(27, 29, 26);"/>
</g></g></g><path d="M 602.348876953125 389.6499938964844 C 609.7089233398438 389.6499938964844 615.5355834960938 391.316650390625 619.8289184570312 394.6499938964844 C 624.1222534179688 397.989990234375 626.2689208984375 402.4566650390625 626.2689208984375 408.04998779296875 C 626.2689208984375 417.01666259765625 622.5889282226562 423.26666259765625 615.2288818359375 426.79998779296875 C 625.1889038085938 430.2466735839844 630.1688842773438 436.6066589355469 630.1688842773438 445.8800048828125 C 630.1688842773438 452.8599853515625 627.1822509765625 458.6700134277344 621.2089233398438 463.30999755859375 C 615.2288818359375 467.95001220703125 607.715576171875 470.2699890136719 598.6688842773438 470.2699890136719 C 593.9155883789062 470.2699890136719 586.822265625 469.8466796875 577.388916015625 469 L 578.7689208984375 441.04998779296875 L 577.388916015625 389.6499938964844 L 602.348876953125 389.6499938964844 M 600.848876953125 434.8399963378906 L 591.5388793945312 434.8399963378906 L 591.4188842773438 439.1000061035156 L 592.2288818359375 457.8399963378906 C 596.6755981445312 458.2266540527344 600.0855712890625 458.4200134277344 602.4589233398438 458.4200134277344 C 606.5255737304688 458.4200134277344 609.6889038085938 457.4033203125 611.9489135742188 455.3699951171875 C 614.2089233398438 453.336669921875 615.3389282226562 450.3666687011719 615.3389282226562 446.4599914550781 C 615.3389282226562 442.5466613769531 614.1889038085938 439.6333312988281 611.888916015625 437.7200012207031 C 609.5889282226562 435.79998779296875 605.908935546875 434.8399963378906 600.848876953125 434.8399963378906 M 598.2089233398438 401.2699890136719 L 592.5689086914062 401.2699890136719 L 591.87890625 423.69000244140625 L 599.35888671875 423.69000244140625 C 603.2655639648438 423.69000244140625 606.2555541992188 422.63665771484375 608.3289184570312 420.5299987792969 C 610.3955688476562 418.4166564941406 611.4288940429688 415.40667724609375 611.4288940429688 411.5 C 611.4288940429688 404.67999267578125 607.022216796875 401.2699890136719 598.2089233398438 401.2699890136719 Z" transform="matrix(0.8045072555541992, 0, 0, 0.8045072555541992, 117.59674072265625, 93.99771118164062)" style="fill: rgb(14, 51, 1); white-space: pre; color: rgb(51, 51, 51);"/><g transform="matrix(1.9585015773773193, 0, 0, 1.9585015773773193, -357.2610168457031, 124.84435272216797)"><path class="st1" d="M385.1,186.5c-1.2,0.2-2.4,0.4-3.6,0.5c-0.4,0-0.8,0-1.2-0.1c-0.7,0-1.4,0-2.1-0.1c-0.6-0.1-1.2-0.3-1.8-0.4&#10;&#9;&#9;c-0.1,0.7-0.1,1.5-0.2,2.2c0,0.3,0.1,0.7-0.1,0.8c-0.9,0.5-1.8,1-2.8,1.5c-2.1,1.2-4.9,2.4-7.6,3c-0.9,0-1.7,0-2.6,0&#10;&#9;&#9;c0.1,1.6,0.2,3.3,0.3,4.9c-0.3,1.3-0.6,2.6-0.8,3.9c0.3,0.8,0.6,1.5,0.9,2.3c0.4,0.5,0.8,1,1.2,1.5c0,0.4-0.1,0.7-0.1,1.1&#10;&#9;&#9;c-0.2,1-0.2,1.9-0.1,2.9c0,0.2,0,0.4,0,0.5c0.6,0.6,1.2,1.1,1.8,1.7c0.4,0.6,0.3,1.6,0.4,2.5c-0.2,0-0.3,0-0.4,0&#10;&#9;&#9;c-1.3-0.1-2.5-0.1-3.8-0.2c-1.2-0.3-2.4-0.7-3.6-1c-0.9,0-1.9,0-2.8,0.1c-0.6-0.2-1.3-0.3-1.9-0.5c-0.6,0-1.2,0-1.8,0&#10;&#9;&#9;c0.1,1,0.2,2.1,0.3,3.1c-0.4,0.8-0.8,1.5-1.1,2.3c-0.7,0.5-1.4,1.1-2.2,1.6c-0.7-0.1-1.4-0.1-2.1-0.2c-1-1.3-2-2.5-3-3.8&#10;&#9;&#9;c-0.8-1.1-0.9-2.3-1-4.1c0-0.7,0-1.5,0.1-2.2c-0.4-1.3-0.9-2.7-1.3-4c-0.4-0.7-0.7-1.4-1.1-2.1c-0.1-0.7-0.1-1.3-0.2-2&#10;&#9;&#9;c-0.3-1.9-0.3-4.4-0.3-6.5c-1.4,0.1-2.8,0.2-4.2,0.3c-0.4-0.1-0.9-0.3-1.3-0.4c-1.2-0.4-2.3-0.7-3.2-1.2c-0.2-0.1-0.3-0.2-0.5-0.3&#10;&#9;&#9;c-0.4-0.8-0.9-1.6-1.3-2.4c-2.1-0.2-4.2-0.4-6.3-0.6c-0.5-0.1-1.1-0.3-1.6-0.4c0.5-5.9,1.1-11.8,1.6-17.8c0.1-0.9,0.1-1.7,0.2-2.6&#10;&#9;&#9;c0.4-2.3,0.4-4.6,0.8-6.8c0.2-2,0.5-3.9,0.7-5.9c0.3-2.7,0.7-5.4,1-8.1c0.5-4,1-7.9,1.5-11.9c0.8-6,1.5-12.1,2.3-18.2&#10;&#9;&#9;c0.9-6.6,1.8-13.1,2.7-19.7c0.2-1.7,0.5-3.5,0.7-5.2c0.1-0.4,0.4-1.8,0.2-2.1c-0.1,0-0.2-0.1-0.2-0.1c-2.7,0.6-5.3,1.1-8,1.7&#10;&#9;&#9;c-1.8,0.2-3.7,0.3-5.5,0.5c-0.4,0-0.8,0-1.2,0c-2,0.1-3.9,0.1-5.9,0.2c-0.4-0.2-0.7-0.4-1.1-0.5c-0.6-0.3-1.3-0.6-1.9-0.9&#10;&#9;&#9;c-1.4-1.3-2.8-2.7-4.2-4c-4.4-4.2-8.8-8.5-13.2-12.7c0.6-1.8,1.2-3.6,1.8-5.4c1.1-1.7,2.2-3.5,3.2-5.2c1.2-1.9,2.3-3.8,3.5-5.7&#10;&#9;&#9;c1.2-1.4,2.4-2.9,3.5-4.3c0.8-0.6,1.5-1.2,2.3-1.8c-0.1-0.6-0.2-1.1-0.2-1.7c-0.3-1.3-0.4-2.7-0.1-4.1c0-0.4,0.1-0.8,0.1-1.1&#10;&#9;&#9;c0.5-0.8,1-1.7,1.5-2.5c1.6-0.1,1.7-0.5,2.6-1.2c0-0.7,0.1-1.5,0.1-2.2c0.2-0.3,0.3-0.6,0.5-0.9c0.1-0.2,0.2-0.3,0.3-0.5&#10;&#9;&#9;c0.2-0.1,0.4-0.2,0.6-0.3c1-0.5,1.5-0.5,2.5,0.1c0.2,0.1,0.4,0.2,0.5,0.3c0.1,0.3,0.3,0.7,0.4,1c-0.7,1.3-1.5,2.5-2.2,3.7&#10;&#9;&#9;c-0.6,1-1.1,2-1.7,3.1c-0.3,0.5-0.6,1.1-0.9,1.6c0.1,1.2,0.1,2.4,0.2,3.6c0.2,0.2,0.4,0.5,0.6,0.7c0.8,1,1.7,1.9,2.5,2.9&#10;&#9;&#9;c0.3,0.4,0.7,0.7,1,1.1c0.1,0.4,0.2,0.8,0.4,1.2c0.6,2,1.1,4,1.7,6c0.2,0.9,0.4,1.8,0.7,2.7c0.4,0.5,0.9,1,1.3,1.5&#10;&#9;&#9;c1.3-0.4,2.5-0.9,3.8-1.3c0.5,0.2,1,0.5,1.5,0.7c1.2,0.5,2.1,1,3.4,1.4c0.5,0.1,1.1,0.3,1.6,0.4c0.6-0.4,1.3-0.8,1.9-1.2&#10;&#9;&#9;c1.6-1,3.2-1.9,4.8-2.9c0.5-0.3,1.1-0.6,1.6-0.9c0.6-0.1,1.2-0.2,1.8-0.3c0.9-0.2,1.8-0.3,2.7-0.5c1.2,0,2.5,0,3.7,0&#10;&#9;&#9;c-0.4-0.8-0.8-1.6-1.2-2.4c0-1.2,0-2.5,0.1-3.7c-0.3-1.5-0.7-3-1.2-4.4c-0.3-0.8-0.6-1.7-0.9-2.5c0-0.3,0-0.7-0.1-1&#10;&#9;&#9;c0-0.4-0.1-0.8-0.1-1.2c0.2-0.3,0.3-0.7,0.5-1c0.5-1.1,1.1-2.1,1.6-3.1c-0.6-1-1.3-2-1.9-3c-1.6,0.6-3.2,1.1-4.7,1.7&#10;&#9;&#9;c-0.1,2.9-0.2,5.7-0.3,8.6c0.3,1.2,0.6,2.4,0.9,3.5c0.5,1.1,1.1,2.2,1.6,3.3c0.3,0.5,0.6,1.1,0.9,1.6c-0.2-0.2-0.3-0.4-0.5-0.7&#10;&#9;&#9;c0,0,0,0,0,0c-0.2,0.4-0.4,0.8-0.6,1.2c0,0,0,0,0,0c-0.1-0.2-0.2-0.4-0.3-0.6c0,0,0,0,0,0c-0.1,0.2-0.3,0.5-0.4,0.7&#10;&#9;&#9;c-0.1-0.1-0.4-0.3-0.5-0.3c-0.3,0.3-0.6,0.5-0.8,0.8c0,0,0,0,0,0c-0.3-0.8-1-1.7-1.2-2.6c0-1.5,0.1-3.1,0.1-4.6c0-0.6,0-1.2,0-1.8&#10;&#9;&#9;c0.2-1.5,0.1-3.2,0.3-4.7c0-0.6,0.1-1.3,0.1-1.9c0-0.8,0.1-1.6,0.1-2.5c-1.2,0.3-2.5,0.5-3.7,0.8c0,0,0.1-0.1,0.1-0.1&#10;&#9;&#9;c1.5-1.5,3-3.1,4.4-4.6c1.7-2.1,3.8-3.6,6-5.2c0.8-0.6,1.7-1.2,2.5-1.9c1.4-0.3,2.9-0.6,4.3-0.9c2.2-0.5,4.4-1,6.6-1.4&#10;&#9;&#9;c3.7-0.2,7.4-0.5,11.1-0.7c0,0,0,0,0,0c0,0,0,0,0,0c-3.1,1.6-6.3,3.3-9.4,4.9c0.6,1.9,1.2,3.8,1.7,5.7c-0.2,0.4-0.3,0.8-0.5,1.1&#10;&#9;&#9;c0.4,1.1,0.7,2.2,1.1,3.3c0.8,2.4,1.5,4.9,2.2,7.4c0.3,1.4,0.6,2.9,0.9,4.3c0.3,1,0.6,2,0.9,3.1c0,0.7-0.1,1.5-0.1,2.2c0,0,0,0,0,0&#10;&#9;&#9;c0.6-1,1.2-2.1,1.8-3.1c1.9-0.1,3.7-0.3,5.6-0.4c1.1-0.4,2.3-0.8,3.4-1.2c0.8-0.3,1.6-0.6,2.5-0.9c0.6-1.2,1.2-2.3,1.8-3.5&#10;&#9;&#9;c0.2-5.2,0.4-10.4,0.6-15.6c0.2-1.1,0.2-1.9,0.4-2.9c0.2-0.9,0.4-1.9,0.5-2.8c-2.3-0.1-4.6-0.2-7-0.3c-0.7-0.5-1.5-1.1-2.2-1.6&#10;&#9;&#9;c-0.1-0.2-0.2-0.4-0.4-0.6c-0.3-0.5-0.8-0.9-0.8-1.8c0.3-0.2,0.6-0.3,1-0.4c0.2,0,0.5,0,0.7,0c0-0.3,0-0.7,0.1-1&#10;&#9;&#9;c0.5-0.1,1-0.3,1.5-0.4c0.1-0.3,0.2-0.6,0.3-0.9c0.3,0,0.6-0.1,0.9-0.1c0.3-0.2,0.6-0.5,1-0.7c0.3,0.3,0.5,0.5,0.8,0.8&#10;&#9;&#9;c0.4,0.2,0.9,0.3,1.3,0.5c1.3,0.3,2.6,0.5,3.9,0.8c0.6,0.3,1.1,0.6,1.7,1c0.3,0.6,0.6,1.1,0.8,1.7c1.4,0.5,2.7,1.1,4.1,1.6&#10;&#9;&#9;c0.4,0.5,0.8,1,1.2,1.5c0.7,0.8,1.4,1.7,2.1,2.5c0.5,1,1,2,1.4,3c1,2.1,2,4.2,3,6.3c0.6,2.6,1.1,5.1,1.7,7.7&#10;&#9;&#9;c0.2,2.4,0.4,4.9,0.7,7.3c0.5,2.9,0.6,6.3,0.1,9.3c-0.1,1.1-0.2,2.3-0.3,3.4c-0.5,0.6-0.9,1.1-1.4,1.7c-0.6,0.7-1.2,1.5-1.8,2.2&#10;&#9;&#9;c-3.1,1.6-6.2,3.2-9.3,4.8c-1,0.5-2,1.1-3,1.6c-0.3,0.2-0.7,0.4-1,0.6c0.3,10.9,0.5,21.7,0.8,32.6c0.1,8.1,0.3,16.2,0.4,24.2&#10;&#9;&#9;C384.5,155,384.8,170.8,385.1,186.5z M341,61.6C341,61.6,341,61.6,341,61.6C341,61.6,341,61.6,341,61.6z" style="fill-rule: evenodd; clip-rule: evenodd; fill: rgb(44, 40, 4); opacity: 1;" transform="matrix(1, 0, 0, 1, 0, 0)"/><path d="M 434.57977294921875 1.0900001525878906 C 436.1464538574219 1.0900001525878906 437.3864440917969 1.4466667175292969 438.2997741699219 2.1599998474121094 C 439.21978759765625 2.866666793823242 439.6797790527344 3.816666603088379 439.6797790527344 5.010000228881836 C 439.6797790527344 6.923333168029785 438.8930969238281 8.256667137145996 437.31976318359375 9.010000228881836 C 439.4464416503906 9.743332862854004 440.509765625 11.09666633605957 440.509765625 13.069999694824219 C 440.509765625 14.556666374206543 439.87310791015625 15.796667098999023 438.5997619628906 16.790000915527344 C 437.3264465332031 17.77666664123535 435.7231140136719 18.270000457763672 433.7897644042969 18.270000457763672 C 432.7831115722656 18.270000457763672 431.2731018066406 18.18000030517578 429.259765625 18 L 429.5497741699219 12.039999961853027 L 429.259765625 1.0900001525878906 L 434.57977294921875 1.0900001525878906 M 434.259765625 10.719999313354492 L 432.27978515625 10.719999313354492 L 432.2497863769531 11.630000114440918 L 432.4197692871094 15.619999885559082 C 433.366455078125 15.706666946411133 434.0931091308594 15.75 434.5997619628906 15.75 C 435.4664306640625 15.75 436.1430969238281 15.533332824707031 436.6297607421875 15.100000381469727 C 437.1097717285156 14.666666984558105 437.3497619628906 14.033332824707031 437.3497619628906 13.199999809265137 C 437.3497619628906 12.366666793823242 437.1031188964844 11.74333381652832 436.6097717285156 11.329999923706055 C 436.12310791015625 10.923333168029785 435.33978271484375 10.719999313354492 434.259765625 10.719999313354492 M 433.69976806640625 3.560000419616699 L 432.4997863769531 3.560000419616699 L 432.3497619628906 8.34000015258789 L 433.9397888183594 8.34000015258789 C 434.7731018066406 8.34000015258789 435.4097595214844 8.116666793823242 435.8497619628906 7.670000076293945 C 436.29644775390625 7.223333358764648 436.519775390625 6.5833330154418945 436.519775390625 5.75 C 436.519775390625 4.289999961853027 435.57977294921875 3.560000419616699 433.69976806640625 3.560000419616699 ZM 446.3416442871094 18 C 445.38165283203125 18 444.594970703125 17.69333267211914 443.9816589355469 17.079999923706055 C 443.3683166503906 16.46666717529297 443.0616455078125 15.643333435058594 443.0616455078125 14.609999656677246 C 443.0616455078125 13.569999694824219 443.53497314453125 12.670000076293945 444.4816589355469 11.90999984741211 C 445.4283142089844 11.149999618530273 446.5816345214844 10.770000457763672 447.941650390625 10.770000457763672 L 449.6016540527344 10.770000457763672 L 449.6016540527344 10.350000381469727 C 449.6016540527344 9.550000190734863 449.4383239746094 9.00333309173584 449.1116638183594 8.710000038146973 C 448.78497314453125 8.416666984558105 448.1716613769531 8.270000457763672 447.2716369628906 8.270000457763672 C 446.8983154296875 8.270000457763672 446.4549865722656 8.34666633605957 445.941650390625 8.5 C 445.4283142089844 8.65999984741211 444.8516540527344 8.90333366394043 444.2116394042969 9.229999542236328 L 443.50164794921875 7.289999961853027 C 444.20166015625 6.796667098999023 445.05499267578125 6.356666564941406 446.0616455078125 5.970000267028809 C 447.0683288574219 5.576666831970215 447.8983154296875 5.380000114440918 448.5516357421875 5.380000114440918 C 451.1183166503906 5.380000114440918 452.4016418457031 6.619999885559082 452.4016418457031 9.100000381469727 L 452.4016418457031 13.90999984741211 C 452.4016418457031 14.823333740234375 452.68499755859375 15.84333324432373 453.25164794921875 16.969999313354492 L 450.6616516113281 18.06999969482422 C 450.2483215332031 17.290000915527344 449.9449768066406 16.59000015258789 449.75164794921875 15.970000267028809 C 448.8516540527344 17.323333740234375 447.7149963378906 18 446.3416442871094 18 M 447.37164306640625 15.5 C 448.0249938964844 15.5 448.768310546875 15.166666984558105 449.6016540527344 14.5 L 449.6016540527344 12.850000381469727 C 448.7349853515625 12.65666675567627 448.0316467285156 12.559999465942383 447.49163818359375 12.559999465942383 C 446.4649963378906 12.559999465942383 445.95166015625 13.016666412353516 445.95166015625 13.930000305175781 C 445.95166015625 14.40333366394043 446.0816345214844 14.783332824707031 446.3416442871094 15.069999694824219 C 446.6016540527344 15.356666564941406 446.9449768066406 15.5 447.37164306640625 15.5 ZM 460.5804138183594 8.5600004196167 C 460.5804138183594 8.5600004196167 460.400390625 8.5600004196167 460.0404052734375 8.5600004196167 C 459.6803894042969 8.5600004196167 459.3037414550781 8.819999694824219 458.910400390625 9.34000015258789 C 458.5170593261719 9.853333473205566 458.3204040527344 10.639999389648438 458.3204040527344 11.699999809265137 C 458.3204040527344 12.760000228881836 458.5203857421875 13.613332748413086 458.92041015625 14.260000228881836 C 459.3204040527344 14.90666675567627 459.90374755859375 15.229999542236328 460.67041015625 15.229999542236328 C 461.063720703125 15.229999542236328 461.4504089355469 15.106666564941406 461.8304138183594 14.859999656677246 C 462.2037353515625 14.619999885559082 462.487060546875 14.376667022705078 462.6803894042969 14.130000114440918 L 462.9504089355469 13.739999771118164 L 464.1803894042969 15.010000228881836 C 464.13372802734375 15.09000015258789 464.07373046875 15.203332901000977 464.0003967285156 15.350000381469727 C 463.92706298828125 15.49666690826416 463.7470703125 15.760000228881836 463.46038818359375 16.139999389648438 C 463.1737365722656 16.51333236694336 462.8703918457031 16.843334197998047 462.5503845214844 17.1299991607666 C 462.23040771484375 17.41666603088379 461.81707763671875 17.676666259765625 461.3103942871094 17.90999984741211 C 460.8037414550781 18.149999618530273 460.27374267578125 18.270000457763672 459.72039794921875 18.270000457763672 C 458.4937438964844 18.270000457763672 457.4970703125 17.770000457763672 456.73040771484375 16.770000457763672 C 455.9637451171875 15.776666641235352 455.5804138183594 14.479999542236328 455.5804138183594 12.880000114440918 C 455.5804138183594 10.886667251586914 456.160400390625 9.136666297912598 457.3204040527344 7.630000114440918 C 458.48040771484375 6.130000114440918 459.8370666503906 5.380000114440918 461.3904113769531 5.380000114440918 C 461.8637390136719 5.380000114440918 462.3370666503906 5.449999809265137 462.8103942871094 5.590000152587891 C 463.2837219238281 5.723333358764648 463.76373291015625 5.939999580383301 464.2503967285156 6.239999771118164 L 462.5404052734375 9.25 C 461.9537353515625 8.789999961853027 461.3003845214844 8.5600004196167 460.5804138183594 8.5600004196167 ZM 474.4166564941406 18.25 L 469.806640625 11.460000038146973 L 469.806640625 11.630000114440918 L 470.07666015625 17.389999389648438 L 466.76666259765625 18 L 467.066650390625 12.039999961853027 L 466.76666259765625 -0.3600006103515625 L 470.12664794921875 -0.9699993133544922 L 469.806640625 10.869999885559082 L 474.7066345214844 5.5 L 477.01666259765625 7.069999694824219 L 472.7266540527344 11.09000015258789 L 477.2066345214844 16.3799991607666 L 474.4166564941406 18.25 ZM 485.40789794921875 1.0900001525878906 C 486.9745788574219 1.0900001525878906 488.2145690917969 1.4466667175292969 489.1278991699219 2.1599998474121094 C 490.04791259765625 2.866666793823242 490.5079040527344 3.816666603088379 490.5079040527344 5.010000228881836 C 490.5079040527344 6.923333168029785 489.7212219238281 8.256667137145996 488.14788818359375 9.010000228881836 C 490.2745666503906 9.743332862854004 491.337890625 11.09666633605957 491.337890625 13.069999694824219 C 491.337890625 14.556666374206543 490.70123291015625 15.796667098999023 489.4278869628906 16.790000915527344 C 488.1545715332031 17.77666664123535 486.5512390136719 18.270000457763672 484.6178894042969 18.270000457763672 C 483.6112365722656 18.270000457763672 482.1012268066406 18.18000030517578 480.087890625 18 L 480.3778991699219 12.039999961853027 L 480.087890625 1.0900001525878906 L 485.40789794921875 1.0900001525878906 M 485.087890625 10.719999313354492 L 483.10791015625 10.719999313354492 L 483.0779113769531 11.630000114440918 L 483.2478942871094 15.619999885559082 C 484.194580078125 15.706666946411133 484.9212341308594 15.75 485.4278869628906 15.75 C 486.2945556640625 15.75 486.9712219238281 15.533332824707031 487.4578857421875 15.100000381469727 C 487.9378967285156 14.666666984558105 488.1778869628906 14.033332824707031 488.1778869628906 13.199999809265137 C 488.1778869628906 12.366666793823242 487.9312438964844 11.74333381652832 487.4378967285156 11.329999923706055 C 486.95123291015625 10.923333168029785 486.16790771484375 10.719999313354492 485.087890625 10.719999313354492 M 484.52789306640625 3.560000419616699 L 483.3279113769531 3.560000419616699 L 483.1778869628906 8.34000015258789 L 484.7679138183594 8.34000015258789 C 485.6012268066406 8.34000015258789 486.2378845214844 8.116666793823242 486.6778869628906 7.670000076293945 C 487.12457275390625 7.223333358764648 487.347900390625 6.5833330154418945 487.347900390625 5.75 C 487.347900390625 4.289999961853027 486.40789794921875 3.560000419616699 484.52789306640625 3.560000419616699 ZM 499.1453857421875 15.5 C 499.6187438964844 15.5 500.1187438964844 15.376667022705078 500.6453857421875 15.130000114440918 C 501.1654052734375 14.883333206176758 501.5720520019531 14.640000343322754 501.8653869628906 14.399999618530273 L 502.3053894042969 14.029999732971191 L 503.4353942871094 15.399999618530273 C 503.275390625 15.680000305175781 503.0220642089844 16 502.6753845214844 16.360000610351562 C 502.33538818359375 16.719999313354492 501.9887390136719 17.02666664123535 501.6354064941406 17.280000686645508 C 501.2820739746094 17.53333282470703 500.8153991699219 17.760000228881836 500.23541259765625 17.959999084472656 C 499.6553955078125 18.16666603088379 499.0553894042969 18.270000457763672 498.4353942871094 18.270000457763672 C 497.1153869628906 18.270000457763672 496.0387268066406 17.766666412353516 495.2054138183594 16.760000228881836 C 494.3720703125 15.760000228881836 493.9554138183594 14.466667175292969 493.9554138183594 12.880000114440918 C 493.9554138183594 10.886667251586914 494.535400390625 9.136666297912598 495.6954040527344 7.630000114440918 C 496.85540771484375 6.130000114440918 498.2120666503906 5.380000114440918 499.7654113769531 5.380000114440918 C 500.9520568847656 5.380000114440918 501.87872314453125 5.7133331298828125 502.54541015625 6.380000114440918 C 503.2054138183594 7.053333282470703 503.535400390625 7.993332862854004 503.535400390625 9.199999809265137 C 503.535400390625 9.920000076293945 503.4120788574219 10.736666679382324 503.1654052734375 11.649999618530273 L 502.6753845214844 12.170000076293945 L 496.5553894042969 12.729999542236328 C 496.8287353515625 14.576666831970215 497.69207763671875 15.5 499.1453857421875 15.5 M 499.1453857421875 7.899999618530273 C 498.4253845214844 7.899999618530273 497.8220520019531 8.1899995803833 497.33538818359375 8.770000457763672 C 496.8420715332031 9.350000381469727 496.5553894042969 10.09000015258789 496.47540283203125 10.989999771118164 L 500.6453857421875 10.479999542236328 C 500.69207763671875 10.100000381469727 500.71539306640625 9.786666870117188 500.71539306640625 9.539999961853027 C 500.71539306640625 8.446666717529297 500.19207763671875 7.899999618530273 499.1453857421875 7.899999618530273 ZM 513.7516479492188 11.800000190734863 C 513.7516479492188 10.673333168029785 513.6516723632812 9.920000076293945 513.45166015625 9.539999961853027 C 513.25830078125 9.166666984558105 512.8016357421875 8.979999542236328 512.0816650390625 8.979999542236328 C 511.3616638183594 8.979999542236328 510.54498291015625 9.266666412353516 509.63165283203125 9.84000015258789 L 509.63165283203125 11.630000114440918 L 509.9016418457031 17.389999389648438 L 506.62164306640625 18 L 506.9116516113281 12.039999961853027 C 506.844970703125 9.853333473205566 506.66497802734375 7.893333435058594 506.37164306640625 6.159999847412109 L 509.3416442871094 5.529999732971191 C 509.4549865722656 6.476666450500488 509.53497314453125 7.396666526794434 509.5816345214844 8.289999961853027 C 509.82830810546875 7.9633331298828125 510.1083068847656 7.643333435058594 510.4216613769531 7.329999923706055 C 510.7283020019531 7.010000228881836 511.21832275390625 6.649999618530273 511.89166259765625 6.25 C 512.5582885742188 5.850000381469727 513.2649536132812 5.649999618530273 514.0116577148438 5.649999618530273 C 514.7516479492188 5.649999618530273 515.375 5.939999580383301 515.8816528320312 6.520000457763672 C 516.3883056640625 7.100000381469727 516.6416625976562 7.886666297912598 516.6416625976562 8.880000114440918 L 516.4916381835938 11.630000114440918 L 516.7616577148438 17.510000228881836 L 513.45166015625 18.1200008392334 L 513.7516479492188 11.800000190734863 ZM 524.6585693359375 8.5600004196167 C 524.6585693359375 8.5600004196167 524.4785766601562 8.5600004196167 524.1185302734375 8.5600004196167 C 523.758544921875 8.5600004196167 523.3818969726562 8.819999694824219 522.988525390625 9.34000015258789 C 522.59521484375 9.853333473205566 522.3985595703125 10.639999389648438 522.3985595703125 11.699999809265137 C 522.3985595703125 12.760000228881836 522.5985717773438 13.613332748413086 522.99853515625 14.260000228881836 C 523.3985595703125 14.90666675567627 523.9818725585938 15.229999542236328 524.74853515625 15.229999542236328 C 525.1419067382812 15.229999542236328 525.528564453125 15.106666564941406 525.9085693359375 14.859999656677246 C 526.2818603515625 14.619999885559082 526.5652465820312 14.376667022705078 526.758544921875 14.130000114440918 L 527.028564453125 13.739999771118164 L 528.258544921875 15.010000228881836 C 528.2119140625 15.09000015258789 528.1519165039062 15.203332901000977 528.0785522460938 15.350000381469727 C 528.0052490234375 15.49666690826416 527.8251953125 15.760000228881836 527.53857421875 16.139999389648438 C 527.2518920898438 16.51333236694336 526.9485473632812 16.843334197998047 526.6285400390625 17.1299991607666 C 526.3085327148438 17.41666603088379 525.8952026367188 17.676666259765625 525.3885498046875 17.90999984741211 C 524.8818969726562 18.149999618530273 524.3518676757812 18.270000457763672 523.798583984375 18.270000457763672 C 522.5718994140625 18.270000457763672 521.5751953125 17.770000457763672 520.8085327148438 16.770000457763672 C 520.0418701171875 15.776666641235352 519.6585693359375 14.479999542236328 519.6585693359375 12.880000114440918 C 519.6585693359375 10.886667251586914 520.238525390625 9.136666297912598 521.3985595703125 7.630000114440918 C 522.5585327148438 6.130000114440918 523.9152221679688 5.380000114440918 525.4685668945312 5.380000114440918 C 525.94189453125 5.380000114440918 526.4152221679688 5.449999809265137 526.8885498046875 5.590000152587891 C 527.3618774414062 5.723333358764648 527.8419189453125 5.939999580383301 528.3285522460938 6.239999771118164 L 526.6185302734375 9.25 C 526.0318603515625 8.789999961853027 525.3785400390625 8.5600004196167 524.6585693359375 8.5600004196167 ZM 538.0048217773438 11.800000190734863 C 538.0048217773438 10.673333168029785 537.90478515625 9.920000076293945 537.704833984375 9.539999961853027 C 537.511474609375 9.166666984558105 537.0548095703125 8.979999542236328 536.3347778320312 8.979999542236328 C 535.6148071289062 8.979999542236328 534.7981567382812 9.266666412353516 533.8848266601562 9.84000015258789 L 533.8848266601562 11.630000114440918 L 534.15478515625 17.389999389648438 L 530.8447875976562 18 L 531.144775390625 12.039999961853027 L 530.8447875976562 -0.3600006103515625 L 534.204833984375 -0.9699993133544922 L 533.8848266601562 5.380000114440918 L 533.8848266601562 8.25 C 534.1314697265625 7.923333168029785 534.4081420898438 7.603333473205566 534.7147827148438 7.289999961853027 C 535.0281372070312 6.976666450500488 535.511474609375 6.626667022705078 536.164794921875 6.239999771118164 C 536.818115234375 5.84666633605957 537.5181274414062 5.649999618530273 538.2648315429688 5.649999618530273 C 539.0048217773438 5.649999618530273 539.6281127929688 5.939999580383301 540.1348266601562 6.520000457763672 C 540.6414794921875 7.100000381469727 540.894775390625 7.886666297912598 540.894775390625 8.880000114440918 L 540.7448120117188 11.630000114440918 L 541.0148315429688 17.510000228881836 L 537.704833984375 18.1200008392334 L 538.0048217773438 11.800000190734863 ZM 549.0829467773438 15.5 C 549.5562744140625 15.5 550.0562744140625 15.376667022705078 550.5829467773438 15.130000114440918 C 551.1029052734375 14.883333206176758 551.5095825195312 14.640000343322754 551.8029174804688 14.399999618530273 L 552.242919921875 14.029999732971191 L 553.3729248046875 15.399999618530273 C 553.2129516601562 15.680000305175781 552.9595947265625 16 552.6129150390625 16.360000610351562 C 552.27294921875 16.719999313354492 551.92626953125 17.02666664123535 551.5729370117188 17.280000686645508 C 551.2196044921875 17.53333282470703 550.7529296875 17.760000228881836 550.1729125976562 17.959999084472656 C 549.5929565429688 18.16666603088379 548.992919921875 18.270000457763672 548.3729248046875 18.270000457763672 C 547.0529174804688 18.270000457763672 545.9762573242188 17.766666412353516 545.1429443359375 16.760000228881836 C 544.3095703125 15.760000228881836 543.8929443359375 14.466667175292969 543.8929443359375 12.880000114440918 C 543.8929443359375 10.886667251586914 544.472900390625 9.136666297912598 545.6329345703125 7.630000114440918 C 546.7929077148438 6.130000114440918 548.1495971679688 5.380000114440918 549.7029418945312 5.380000114440918 C 550.8895874023438 5.380000114440918 551.8162841796875 5.7133331298828125 552.48291015625 6.380000114440918 C 553.1429443359375 7.053333282470703 553.472900390625 7.993332862854004 553.472900390625 9.199999809265137 C 553.472900390625 9.920000076293945 553.349609375 10.736666679382324 553.1029052734375 11.649999618530273 L 552.6129150390625 12.170000076293945 L 546.492919921875 12.729999542236328 C 546.7662353515625 14.576666831970215 547.6295776367188 15.5 549.0829467773438 15.5 M 549.0829467773438 7.899999618530273 C 548.3629150390625 7.899999618530273 547.7595825195312 8.1899995803833 547.27294921875 8.770000457763672 C 546.7796020507812 9.350000381469727 546.492919921875 10.09000015258789 546.4129028320312 10.989999771118164 L 550.5829467773438 10.479999542236328 C 550.6295776367188 10.100000381469727 550.6529541015625 9.786666870117188 550.6529541015625 9.539999961853027 C 550.6529541015625 8.446666717529297 550.1295776367188 7.899999618530273 549.0829467773438 7.899999618530273 ZM 556.3092041015625 6.159999847412109 L 559.2791748046875 5.529999732971191 C 559.4258422851562 6.783333778381348 559.5225219726562 7.973333358764648 559.5691528320312 9.100000381469727 C 561.0558471679688 6.800000190734863 562.4525146484375 5.649999618530273 563.7591552734375 5.649999618530273 L 563.4891967773438 9.470000267028809 C 562.5425415039062 9.470000267028809 561.7958374023438 9.556666374206543 561.2492065429688 9.729999542236328 C 560.7025146484375 9.90333366394043 560.1425170898438 10.24333381652832 559.5691528320312 10.75 L 559.5691528320312 11.630000114440918 L 559.8391723632812 17.389999389648438 L 556.5592041015625 18 L 556.8491821289062 12.039999961853027 C 556.7825317382812 9.853333473205566 556.6025390625 7.893333435058594 556.3092041015625 6.159999847412109 Z" transform="matrix(1, 0, 0, 1, 0, 0)" style="fill: rgb(51, 24, 2); white-space: pre; color: rgb(51, 51, 51);"/></g></svg>